<svg width="24" height="24" viewBox="0 0 24 24" fill="none" xmlns="http://www.w3.org/2000/svg">
<g clip-path="url(#clip0_251_9604)">
<path d="M12.4799 10.92V14.2H20.3199C20.0799 16.04 19.4669 17.387 18.5329 18.333C17.3859 19.48 15.5999 20.733 12.4799 20.733C7.65288 20.733 3.87988 16.84 3.87988 12.013C3.87988 7.186 7.65288 3.293 12.4799 3.293C15.0799 3.293 16.9869 4.32 18.3869 5.64L20.6939 3.333C18.7469 1.44 16.1329 0 12.4799 0C5.86688 0 0.306885 5.387 0.306885 12C0.306885 18.613 5.86688 24 12.4799 24C16.0529 24 18.7469 22.827 20.8529 20.64C23.0129 18.48 23.6929 15.427 23.6929 12.973C23.6929 12.213 23.6399 11.506 23.5199 10.92H12.4799Z" fill="black"/>
</g>
<defs>
<clipPath id="clip0_251_9604">
<rect width="24" height="24" fill="white"/>
</clipPath>
</defs>
</svg>
